<svg width="20" height="21" viewBox="0 0 20 21" fill="none" xmlns="http://www.w3.org/2000/svg">
<path d="M0 2.38265C0 1.48096 0.730958 0.75 1.63264 0.75H11.4285C12.3302 0.75 13.0611 1.48096 13.0611 2.38265V19.1173C13.0611 20.019 12.3302 20.75 11.4285 20.75H1.63264C0.730958 20.75 0 20.019 0 19.1173V2.38265Z" fill="url(#paint0_linear_385_15009)"/>
<path d="M2.24512 8.60713C2.24512 7.98722 2.74765 7.48468 3.36756 7.48468H9.69404C10.3139 7.48468 10.8165 7.98722 10.8165 8.60713V8.81121C10.8165 9.43112 10.3139 9.93366 9.69404 9.93366H3.36756C2.74765 9.93366 2.24512 9.43112 2.24512 8.81121V8.60713Z" fill="#FF9E00"/>
<path d="M2.24512 12.6888C2.24512 12.0689 2.74765 11.5663 3.36756 11.5663H9.69404C10.3139 11.5663 10.8165 12.0689 10.8165 12.6888V12.8929C10.8165 13.5128 10.3139 14.0153 9.69404 14.0153H3.36756C2.74765 14.0153 2.24512 13.5128 2.24512 12.8929V12.6888Z" fill="#FF9E00"/>
<path d="M5.10156 16.7704C5.10156 16.1505 5.6041 15.6479 6.224 15.6479H9.69336C10.3133 15.6479 10.8158 16.1505 10.8158 16.7704V16.9745C10.8158 17.5944 10.3133 18.0969 9.69336 18.0969H6.224C5.6041 18.0969 5.10156 17.5944 5.10156 16.9745V16.7704Z" fill="#FF9E00"/>
<path d="M2.24512 4.52553C2.24512 3.90561 2.74765 3.40308 3.36756 3.40308H9.69404C10.3139 3.40308 10.8165 3.90561 10.8165 4.52553V4.72961C10.8165 5.34952 10.3139 5.85206 9.69404 5.85206H3.36756C2.74765 5.85206 2.24512 5.34952 2.24512 4.72961V4.52553Z" fill="#FF9E00"/>
<mask id="mask0_385_15009" style="mask-type:alpha" maskUnits="userSpaceOnUse" x="0" y="0" width="14" height="21">
<path d="M0 2.38265C0 1.48096 0.730958 0.75 1.63264 0.75H11.4285C12.3302 0.75 13.0611 1.48096 13.0611 2.38265V19.1173C13.0611 20.019 12.3302 20.75 11.4285 20.75H1.63264C0.730958 20.75 0 20.019 0 19.1173V2.38265Z" fill="url(#paint1_linear_385_15009)"/>
</mask>
<g mask="url(#mask0_385_15009)">
<g filter="url(#filter0_f_385_15009)">
<path d="M19.5915 11.6684C19.5915 14.8806 16.9875 17.4847 13.7753 17.4847C10.563 17.4847 7.95898 14.8806 7.95898 11.6684C7.95898 8.45611 10.563 5.85205 13.7753 5.85205C16.9875 5.85205 19.5915 8.45611 19.5915 11.6684Z" fill="black" fill-opacity="0.2"/>
</g>
</g>
<path d="M20.0007 10.75C20.0007 13.9622 17.3967 16.5663 14.1844 16.5663C10.9722 16.5663 8.36816 13.9622 8.36816 10.75C8.36816 7.53771 10.9722 4.93365 14.1844 4.93365C17.3967 4.93365 20.0007 7.53771 20.0007 10.75Z" fill="url(#paint2_linear_385_15009)"/>
<path fill-rule="evenodd" clip-rule="evenodd" d="M17.0853 7.97682C17.4897 8.28284 17.5696 8.85881 17.2635 9.26329L14.1755 13.3449C14.0058 13.5692 13.7428 13.7033 13.4617 13.709C13.1805 13.7147 12.9123 13.5913 12.7337 13.3741L11.1279 11.4209C10.8058 11.0291 10.8623 10.4504 11.2541 10.1283C11.6459 9.80614 12.2246 9.86263 12.5467 10.2544L13.4132 11.3083L15.7988 8.15509C16.1048 7.75061 16.6808 7.67079 17.0853 7.97682Z" fill="white"/>
<defs>
<filter id="filter0_f_385_15009" x="-22.041" y="-24.1479" width="71.6328" height="71.6326" filterUnits="userSpaceOnUse" color-interpolation-filters="sRGB">
<feFlood flood-opacity="0" result="BackgroundImageFix"/>
<feBlend mode="normal" in="SourceGraphic" in2="BackgroundImageFix" result="shape"/>
<feGaussianBlur stdDeviation="15" result="effect1_foregroundBlur_385_15009"/>
</filter>
<linearGradient id="paint0_linear_385_15009" x1="6.53056" y1="0.75" x2="6.53056" y2="20.75" gradientUnits="userSpaceOnUse">
<stop stop-color="#FECF3E"/>
<stop offset="1" stop-color="#FFB600"/>
</linearGradient>
<linearGradient id="paint1_linear_385_15009" x1="6.53056" y1="0.75" x2="6.53056" y2="20.75" gradientUnits="userSpaceOnUse">
<stop stop-color="#FECF3E"/>
<stop offset="1" stop-color="#FFB600"/>
</linearGradient>
<linearGradient id="paint2_linear_385_15009" x1="14.1844" y1="4.93365" x2="14.1844" y2="16.5663" gradientUnits="userSpaceOnUse">
<stop stop-color="#FF8500"/>
<stop offset="1" stop-color="#FF6D00"/>
</linearGradient>
</defs>
</svg>
