<svg width="20" height="21" viewBox="0 0 20 21" fill="none" xmlns="http://www.w3.org/2000/svg">
<path d="M0.666992 3.41666C0.666992 2.31209 1.56242 1.41666 2.66699 1.41666H10.667C11.7716 1.41666 12.667 2.31209 12.667 3.41666V15.4167C12.667 16.5212 11.7716 17.4167 10.667 17.4167H2.66699C1.56242 17.4167 0.666992 16.5212 0.666992 15.4167V3.41666Z" fill="url(#paint0_linear_385_14999)"/>
<path d="M3.33398 4.74998C3.33398 4.38179 3.63246 4.08331 4.00065 4.08331H7.33398C7.70217 4.08331 8.00065 4.38179 8.00065 4.74998C8.00065 5.11817 7.70217 5.41665 7.33398 5.41665H4.00065C3.63246 5.41665 3.33398 5.11817 3.33398 4.74998Z" fill="white" fill-opacity="0.6"/>
<path d="M3.33398 7.41667C3.33398 7.04848 3.63246 6.75 4.00065 6.75H9.33398C9.70217 6.75 10.0007 7.04848 10.0007 7.41667C10.0007 7.78486 9.70217 8.08333 9.33398 8.08333H4.00065C3.63246 8.08333 3.33398 7.78486 3.33398 7.41667Z" fill="white" fill-opacity="0.6"/>
<path d="M3.33398 11.0833C3.33398 10.531 3.7817 10.0833 4.33398 10.0833H9.00065C9.55294 10.0833 10.0007 10.531 10.0007 11.0833V13.75C10.0007 14.3023 9.55294 14.75 9.00065 14.75H4.33398C3.7817 14.75 3.33398 14.3023 3.33398 13.75V11.0833Z" fill="white" fill-opacity="0.6"/>
<mask id="mask0_385_14999" style="mask-type:alpha" maskUnits="userSpaceOnUse" x="0" y="1" width="13" height="17">
<path d="M0.666992 3.41666C0.666992 2.31209 1.56242 1.41666 2.66699 1.41666H10.667C11.7716 1.41666 12.667 2.31209 12.667 3.41666V15.4167C12.667 16.5212 11.7716 17.4167 10.667 17.4167H2.66699C1.56242 17.4167 0.666992 16.5212 0.666992 15.4167V3.41666Z" fill="url(#paint1_linear_385_14999)"/>
</mask>
<g mask="url(#mask0_385_14999)">
<g filter="url(#filter0_f_385_14999)">
<path d="M7.33398 7.41666C7.33398 6.31209 8.22941 5.41666 9.33398 5.41666H17.334C18.4386 5.41666 19.334 6.31209 19.334 7.41666V19.4167C19.334 20.5212 18.4386 21.4167 17.334 21.4167H9.33398C8.22942 21.4167 7.33398 20.5212 7.33398 19.4167V7.41666Z" fill="black" fill-opacity="0.4"/>
</g>
</g>
<path d="M7.33398 6.08331C7.33398 4.97874 8.22941 4.08331 9.33398 4.08331H17.334C18.4386 4.08331 19.334 4.97874 19.334 6.08331V18.0833C19.334 19.1879 18.4386 20.0833 17.334 20.0833H9.33398C8.22942 20.0833 7.33398 19.1879 7.33398 18.0833V6.08331Z" fill="url(#paint2_linear_385_14999)"/>
<path d="M10 7.41667C10 7.04848 10.2985 6.75 10.6667 6.75H14C14.3682 6.75 14.6667 7.04848 14.6667 7.41667C14.6667 7.78486 14.3682 8.08333 14 8.08333H10.6667C10.2985 8.08333 10 7.78486 10 7.41667Z" fill="white"/>
<path d="M10 10.0833C10 9.71513 10.2985 9.41666 10.6667 9.41666H16C16.3682 9.41666 16.6667 9.71513 16.6667 10.0833C16.6667 10.4515 16.3682 10.75 16 10.75H10.6667C10.2985 10.75 10 10.4515 10 10.0833Z" fill="white"/>
<path d="M10 13.75C10 13.1977 10.4477 12.75 11 12.75H15.6667C16.219 12.75 16.6667 13.1977 16.6667 13.75V16.4167C16.6667 16.969 16.219 17.4167 15.6667 17.4167H11C10.4477 17.4167 10 16.969 10 16.4167V13.75Z" fill="white"/>
<defs>
<filter id="filter0_f_385_14999" x="-2.66602" y="-4.58334" width="32" height="36" filterUnits="userSpaceOnUse" color-interpolation-filters="sRGB">
<feFlood flood-opacity="0" result="BackgroundImageFix"/>
<feBlend mode="normal" in="SourceGraphic" in2="BackgroundImageFix" result="shape"/>
<feGaussianBlur stdDeviation="5" result="effect1_foregroundBlur_385_14999"/>
</filter>
<linearGradient id="paint0_linear_385_14999" x1="6.66699" y1="1.41666" x2="6.66699" y2="17.4167" gradientUnits="userSpaceOnUse">
<stop stop-color="#05AB01"/>
<stop offset="1" stop-color="#038C00"/>
</linearGradient>
<linearGradient id="paint1_linear_385_14999" x1="6.66699" y1="1.41666" x2="6.66699" y2="17.4167" gradientUnits="userSpaceOnUse">
<stop stop-color="#0A85ED"/>
<stop offset="1" stop-color="#0C63E7"/>
</linearGradient>
<linearGradient id="paint2_linear_385_14999" x1="13.334" y1="4.08331" x2="13.334" y2="20.0833" gradientUnits="userSpaceOnUse">
<stop stop-color="#06DB00"/>
<stop offset="1" stop-color="#05C300"/>
</linearGradient>
</defs>
</svg>
