<svg width="20" height="21" viewBox="0 0 20 21" fill="none" xmlns="http://www.w3.org/2000/svg">
<path d="M0.666504 4.08317C0.666504 2.61041 1.86041 1.4165 3.33317 1.4165H5.99984V20.0832H3.33317C1.86041 20.0832 0.666504 18.8893 0.666504 17.4165V4.08317Z" fill="url(#paint0_linear_214_11680)"/>
<path d="M6 1.4165H16.6667C18.1394 1.4165 19.3333 2.61041 19.3333 4.08317V17.4165C19.3333 18.8893 18.1394 20.0832 16.6667 20.0832H6V1.4165Z" fill="url(#paint1_linear_214_11680)"/>
<path d="M8 6.08333C8 5.34695 8.59695 4.75 9.33333 4.75H16C16.7364 4.75 17.3333 5.34695 17.3333 6.08333V6.08333C17.3333 6.81971 16.7364 7.41667 16 7.41667H9.33333C8.59695 7.41667 8 6.81971 8 6.08333V6.08333Z" fill="white"/>
<path d="M8 10.7498C8 10.0135 8.59695 9.4165 9.33333 9.4165H16C16.7364 9.4165 17.3333 10.0135 17.3333 10.7498V10.7498C17.3333 11.4862 16.7364 12.0832 16 12.0832H9.33333C8.59695 12.0832 8 11.4862 8 10.7498V10.7498Z" fill="white"/>
<path d="M12 15.4163C12 14.68 12.597 14.083 13.3333 14.083H16C16.7364 14.083 17.3333 14.68 17.3333 15.4163V15.4163C17.3333 16.1527 16.7364 16.7497 16 16.7497H13.3333C12.597 16.7497 12 16.1527 12 15.4163V15.4163Z" fill="#BB0CE7"/>
<defs>
<linearGradient id="paint0_linear_214_11680" x1="3.33317" y1="1.4165" x2="3.33317" y2="20.0832" gradientUnits="userSpaceOnUse">
<stop stop-color="#B20AED"/>
<stop offset="1" stop-color="#940CE7"/>
</linearGradient>
<linearGradient id="paint1_linear_214_11680" x1="12.6667" y1="1.4165" x2="12.6667" y2="20.0832" gradientUnits="userSpaceOnUse">
<stop stop-color="#B960FF"/>
<stop offset="1" stop-color="#E089FF"/>
</linearGradient>
</defs>
</svg>
