<svg width="89" height="88" viewBox="0 0 89 88" fill="none" xmlns="http://www.w3.org/2000/svg">
<g filter="url(#filter0_d_1142_30208)">
<path d="M44.5 0C22.4442 0 4.5 17.9442 4.5 40C4.5 62.0558 22.4442 80 44.5 80C66.5558 80 84.5 62.0558 84.5 40C84.5 17.9442 66.5558 0 44.5 0ZM65.3173 26.5942L39.4712 57.3635C39.1876 57.7012 38.8349 57.974 38.4367 58.1634C38.0386 58.3529 37.6043 58.4545 37.1635 58.4615H37.1115C36.6803 58.4614 36.2538 58.3706 35.8599 58.195C35.466 58.0194 35.1134 57.763 34.825 57.4423L23.7481 45.1346C23.4668 44.8362 23.2479 44.4846 23.1044 44.1005C22.9609 43.7163 22.8957 43.3074 22.9125 42.8977C22.9293 42.4879 23.0279 42.0857 23.2024 41.7146C23.3769 41.3435 23.6238 41.011 23.9286 40.7367C24.2334 40.4624 24.59 40.2518 24.9774 40.1172C25.3648 39.9827 25.7751 39.9269 26.1844 39.9533C26.5936 39.9796 26.9934 40.0874 27.3604 40.2705C27.7273 40.4536 28.054 40.7081 28.3212 41.0192L37.0308 50.6962L60.6058 22.6365C61.1346 22.0252 61.8827 21.6464 62.6885 21.5822C63.4943 21.518 64.2931 21.7735 64.912 22.2934C65.531 22.8133 65.9205 23.5559 65.9963 24.3607C66.0721 25.1655 65.8282 25.9678 65.3173 26.5942Z" fill="#038C00"/>
</g>
<defs>
<filter id="filter0_d_1142_30208" x="0.5" y="0" width="88" height="88" filterUnits="userSpaceOnUse" color-interpolation-filters="sRGB">
<feFlood flood-opacity="0" result="BackgroundImageFix"/>
<feColorMatrix in="SourceAlpha" type="matrix" values="0 0 0 0 0 0 0 0 0 0 0 0 0 0 0 0 0 0 127 0" result="hardAlpha"/>
<feOffset dy="4"/>
<feGaussianBlur stdDeviation="2"/>
<feComposite in2="hardAlpha" operator="out"/>
<feColorMatrix type="matrix" values="0 0 0 0 0.857268 0 0 0 0 0.909167 0 0 0 0 0.856132 0 0 0 1 0"/>
<feBlend mode="normal" in2="BackgroundImageFix" result="effect1_dropShadow_1142_30208"/>
<feBlend mode="normal" in="SourceGraphic" in2="effect1_dropShadow_1142_30208" result="shape"/>
</filter>
</defs>
</svg>
